# xmcd
#
# Track frame offsets:
#  150
#  24230
#  45843
#  72685
#  87433
#  106953
#  130583
#  148080
#  163990
#  185550
#  204848
#  223288
#  248070
#  265363
#  287200
#
# Disc length: 4099 seconds
#
# Revision: 0
# Processed by: cddbd v1.4PL0 Copyright (c) Steve Scherf et al.
# Submitted via: AltoMP3_Maker 3.0
#
DISCID=e410010f
DTITLE=Imagination - Les indispensables de
DYEAR=1900
DGENRE=
TTITLE0=Music and lights
TTITLE1=Flashback
TTITLE2=Body talk
TTITLE3=Sunshine
TTITLE4=New dimension
TTITLE5=In the heat of the night
TTITLE6=I'll always love you
TTITLE7=Follow me
TTITLE8=Heart 'N' soul
TTITLE9=All night loving
TTITLE10=Body and soul
TTITLE11=In and out of love
TTITLE12=Looking at midnight
TTITLE13=State of love
TTITLE14=When I see the fire
EXTD=
EXTT0=
EXTT1=
EXTT2=
EXTT3=
EXTT4=
EXTT5=
EXTT6=
EXTT7=
EXTT8=
EXTT9=
EXTT10=
EXTT11=
EXTT12=
EXTT13=
EXTT14=
PLAYORDER=
